<?xml version="1.0" encoding="utf-8"?>
<!-- Generator: Adobe Illustrator 16.0.0, SVG Export Plug-In . SVG Version: 6.00 Build 0)  -->
<!DOCTYPE svg PUBLIC "-//W3C//DTD SVG 1.1//EN" "http://www.w3.org/Graphics/SVG/1.1/DTD/svg11.dtd">
<svg version="1.1" id="Layer_1" xmlns="http://www.w3.org/2000/svg" xmlns:xlink="http://www.w3.org/1999/xlink" x="0px" y="0px"
	 width="960px" height="259.478px" viewBox="0 0 960 259.478" enable-background="new 0 0 960 259.478" xml:space="preserve">
<g>
	<polygon fill-rule="evenodd" clip-rule="evenodd" fill="#FFFFFF" points="135.202,129.873 230.385,76.967 230.385,3.591 
		69.168,93.088 3.079,129.776 230.385,256.188 230.385,182.813 230.385,84.394 166.616,119.47 166.616,146.861 	"/>
	<polygon opacity="0.23" fill-rule="evenodd" clip-rule="evenodd" points="135.202,129.873 146.857,123.394 69.167,93.087 	"/>
	<polygon opacity="0.23" fill-rule="evenodd" clip-rule="evenodd" points="166.616,134.972 166.616,146.861 230.771,182.601 	"/>
	<g>
		<path fill="#FFFFFF" d="M377.937,90.037h59.945v74.859c-16.278,5.573-34.169,8.36-53.675,8.36
			c-21.407,0-37.952-6.208-49.637-18.62s-17.527-30.115-17.527-53.104c0-22.419,6.396-39.867,19.19-52.345
			c12.792-12.477,30.714-18.714,53.769-18.714c8.739,0,16.988,0.823,24.747,2.47c7.757,1.647,14.519,3.737,20.284,6.27
			l-11.875,29.45c-10.009-4.94-20.995-7.411-32.964-7.411c-10.959,0-19.428,3.563-25.413,10.688
			c-5.985,7.125-8.977,17.306-8.977,30.542c0,12.984,2.708,22.88,8.123,29.688c5.415,6.808,13.219,10.212,23.417,10.212
			c5.572,0,10.702-0.538,15.391-1.616v-21.754h-24.795V90.037z"/>
		<path fill="#FFFFFF" d="M459.628,171.355V32.467h37.714v138.889H459.628z"/>
		<path fill="#FFFFFF" d="M679.107,171.355h-160.96v-23.18l60.135-85.405H459.628V32.467h165.205v23.084l-60.135,85.5h114.759
			L679.107,171.355z"/>
		<path fill="#FFFFFF" d="M706.721,171.355L678.316,71.321h-0.855c1.33,17.037,1.996,30.273,1.996,39.71v60.324h-33.251V32.467
			h49.97l28.976,98.609h0.759l28.405-98.609h50.063v138.889h-34.484V110.46c0-3.165,0.048-6.681,0.143-10.544
			c0.094-3.862,0.523-13.332,1.283-28.405h-0.855l-28.024,99.844H706.721z"/>
		<path fill="#FFFFFF" d="M957.7,101.721c0,23.371-5.732,41.135-17.194,53.295c-11.464,12.16-28.247,18.24-50.351,18.24
			c-21.786,0-38.49-6.113-50.111-18.336c-11.622-12.223-17.433-30.019-17.433-53.389c0-23.116,5.779-40.77,17.338-52.962
			c11.559-12.191,28.357-18.288,50.396-18.288c22.102,0,38.854,6.049,50.254,18.146C952,60.524,957.7,78.289,957.7,101.721z
			 M862.131,101.721c0,26.855,9.342,40.28,28.024,40.28c9.501,0,16.546-3.261,21.138-9.786c4.592-6.521,6.888-16.687,6.888-30.495
			c0-13.869-2.327-24.113-6.981-30.732c-4.656-6.617-11.606-9.928-20.854-9.928C871.537,61.061,862.131,74.616,862.131,101.721z"/>
	</g>
	<g>
		<path opacity="0.5" fill="#FFFFFF" d="M344.452,212.342c0,2.994-1.021,5.298-3.065,6.909c-2.043,1.612-4.967,2.418-8.771,2.418
			h-3.48v11.634h-3.439v-29.581h7.668C340.756,203.722,344.452,206.595,344.452,212.342z M329.135,218.715h3.096
			c3.048,0,5.254-0.492,6.616-1.478c1.362-0.984,2.043-2.563,2.043-4.734c0-1.955-0.641-3.412-1.922-4.37
			c-1.282-0.958-3.278-1.437-5.989-1.437h-3.844V218.715z"/>
		<path opacity="0.5" fill="#FFFFFF" d="M377.769,218.472c0,4.734-1.197,8.458-3.591,11.169c-2.395,2.711-5.723,4.066-9.985,4.066
			c-4.357,0-7.719-1.331-10.086-3.996c-2.367-2.663-3.551-6.424-3.551-11.279c0-4.815,1.187-8.549,3.561-11.199
			c2.374-2.65,5.746-3.976,10.116-3.976c4.249,0,7.567,1.349,9.955,4.047C376.575,210.001,377.769,213.725,377.769,218.472z
			 M354.197,218.472c0,4.007,0.853,7.045,2.56,9.115c1.706,2.07,4.185,3.105,7.436,3.105c3.278,0,5.753-1.031,7.426-3.096
			c1.672-2.063,2.509-5.105,2.509-9.125c0-3.979-0.833-6.997-2.499-9.054s-4.131-3.086-7.395-3.086c-3.278,0-5.77,1.035-7.476,3.105
			C355.05,211.509,354.197,214.52,354.197,218.472z"/>
		<path opacity="0.5" fill="#FFFFFF" d="M402.508,225.432c0,2.604-0.944,4.634-2.833,6.091s-4.451,2.185-7.688,2.185
			c-3.507,0-6.205-0.451-8.093-1.355v-3.318c1.214,0.513,2.536,0.918,3.966,1.214c1.43,0.297,2.846,0.445,4.249,0.445
			c2.293,0,4.02-0.435,5.18-1.305c1.16-0.87,1.74-2.081,1.74-3.632c0-1.025-0.206-1.864-0.617-2.52
			c-0.412-0.653-1.1-1.257-2.064-1.811c-0.964-0.553-2.432-1.18-4.401-1.882c-2.751-0.984-4.718-2.151-5.898-3.5
			s-1.77-3.109-1.77-5.281c0-2.279,0.856-4.093,2.569-5.442c1.713-1.349,3.979-2.023,6.798-2.023c2.94,0,5.645,0.54,8.113,1.619
			l-1.072,2.994c-2.441-1.024-4.815-1.537-7.122-1.537c-1.821,0-3.244,0.391-4.269,1.173c-1.025,0.782-1.538,1.868-1.538,3.258
			c0,1.025,0.188,1.865,0.566,2.519c0.377,0.654,1.015,1.255,1.912,1.801c0.897,0.547,2.269,1.15,4.117,1.812
			c3.103,1.105,5.237,2.293,6.404,3.561C401.924,221.764,402.508,223.409,402.508,225.432z"/>
		<path opacity="0.5" fill="#FFFFFF" d="M432.945,203.722l-11.027,29.581h-3.358l11.027-29.581H432.945z"/>
		<path opacity="0.5" fill="#FFFFFF" d="M469.857,212.342c0,2.994-1.021,5.298-3.065,6.909c-2.043,1.612-4.967,2.418-8.771,2.418
			h-3.48v11.634h-3.439v-29.581h7.668C466.162,203.722,469.857,206.595,469.857,212.342z M454.541,218.715h3.096
			c3.048,0,5.254-0.492,6.616-1.478c1.362-0.984,2.043-2.563,2.043-4.734c0-1.955-0.641-3.412-1.922-4.37
			c-1.282-0.958-3.278-1.437-5.989-1.437h-3.844V218.715z"/>
		<path opacity="0.5" fill="#FFFFFF" d="M490.164,206.373c-3.25,0-5.816,1.082-7.697,3.247c-1.882,2.165-2.823,5.129-2.823,8.893
			c0,3.871,0.907,6.862,2.722,8.973c1.814,2.111,4.4,3.167,7.76,3.167c2.063,0,4.416-0.371,7.061-1.113v3.015
			c-2.051,0.77-4.58,1.153-7.588,1.153c-4.355,0-7.719-1.321-10.085-3.965c-2.367-2.644-3.551-6.4-3.551-11.271
			c0-3.048,0.569-5.719,1.709-8.012c1.14-2.293,2.785-4.061,4.937-5.302c2.152-1.24,4.684-1.861,7.598-1.861
			c3.102,0,5.814,0.566,8.135,1.7l-1.457,2.954C494.643,206.898,492.404,206.373,490.164,206.373z"/>
		<path opacity="0.5" fill="#FFFFFF" d="M530.396,233.303l-10.035-26.222h-0.162c0.188,2.077,0.283,4.546,0.283,7.405v18.816h-3.177
			v-29.581h5.18l9.368,24.401h0.162l9.448-24.401h5.14v29.581h-3.439v-19.06c0-2.186,0.094-4.559,0.283-7.122h-0.162l-10.116,26.182
			H530.396z"/>
		<path opacity="0.5" fill="#FFFFFF" d="M574.76,233.303l-3.683-9.408h-11.856l-3.642,9.408h-3.48l11.694-29.702h2.894
			l11.634,29.702H574.76z M570.005,220.799l-3.439-9.166c-0.445-1.159-0.904-2.582-1.376-4.269
			c-0.297,1.295-0.722,2.718-1.274,4.269l-3.48,9.166H570.005z"/>
		<path opacity="0.5" fill="#FFFFFF" d="M606.944,233.303h-3.925l-16.166-24.826h-0.162c0.216,2.914,0.323,5.585,0.323,8.013v16.813
			h-3.177v-29.581h3.885l16.126,24.726h0.162c-0.027-0.364-0.088-1.535-0.183-3.511c-0.094-1.976-0.128-3.39-0.101-4.239v-16.976
			h3.217V233.303z"/>
		<path opacity="0.5" fill="#FFFFFF" d="M635.122,233.303l-3.683-9.408h-11.856l-3.642,9.408h-3.48l11.694-29.702h2.894
			l11.634,29.702H635.122z M630.367,220.799l-3.439-9.166c-0.445-1.159-0.904-2.582-1.376-4.269
			c-0.297,1.295-0.722,2.718-1.274,4.269l-3.48,9.166H630.367z"/>
		<path opacity="0.5" fill="#FFFFFF" d="M657.21,217.805h10.057v14.385c-1.565,0.5-3.156,0.877-4.775,1.134
			c-1.618,0.256-3.493,0.384-5.625,0.384c-4.479,0-7.965-1.331-10.46-3.996c-2.496-2.663-3.743-6.396-3.743-11.198
			c0-3.076,0.617-5.77,1.852-8.083c1.233-2.313,3.011-4.08,5.331-5.302c2.319-1.221,5.038-1.831,8.154-1.831
			c3.156,0,6.097,0.58,8.821,1.74l-1.336,3.035c-2.67-1.133-5.24-1.699-7.708-1.699c-3.602,0-6.414,1.072-8.438,3.217
			s-3.035,5.119-3.035,8.923c0,3.992,0.975,7.021,2.924,9.084c1.949,2.064,4.812,3.096,8.589,3.096c2.05,0,4.054-0.235,6.009-0.708
			v-9.104h-6.616V217.805z"/>
		<path opacity="0.5" fill="#FFFFFF" d="M692.308,233.303h-16.49v-29.581h16.49v3.056h-13.05v9.529h12.261v3.035h-12.261v10.886
			h13.05V233.303z"/>
		<path opacity="0.5" fill="#FFFFFF" d="M713.404,233.303l-10.035-26.222h-0.162c0.188,2.077,0.283,4.546,0.283,7.405v18.816h-3.177
			v-29.581h5.18l9.368,24.401h0.162l9.448-24.401h5.14v29.581h-3.439v-19.06c0-2.186,0.094-4.559,0.283-7.122h-0.162l-10.116,26.182
			H713.404z"/>
		<path opacity="0.5" fill="#FFFFFF" d="M755.665,233.303h-16.49v-29.581h16.49v3.056h-13.05v9.529h12.261v3.035h-12.261v10.886
			h13.05V233.303z"/>
		<path opacity="0.5" fill="#FFFFFF" d="M786.776,233.303h-3.925l-16.166-24.826h-0.162c0.216,2.914,0.323,5.585,0.323,8.013v16.813
			h-3.177v-29.581h3.885l16.126,24.726h0.162c-0.027-0.364-0.088-1.535-0.183-3.511c-0.094-1.976-0.128-3.39-0.101-4.239v-16.976
			h3.217V233.303z"/>
		<path opacity="0.5" fill="#FFFFFF" d="M805.466,233.303h-3.439v-26.525h-9.368v-3.056h22.176v3.056h-9.368V233.303z"/>
		<path opacity="0.8" fill="#FFFFFF" d="M850.688,225.088c0,2.671-0.961,4.775-2.883,6.313c-1.922,1.538-4.597,2.307-8.022,2.307
			c-3.156,0-5.948-0.593-8.376-1.78V226.1c1.996,0.891,3.686,1.518,5.068,1.882c1.382,0.364,2.646,0.546,3.793,0.546
			c1.376,0,2.432-0.263,3.167-0.789c0.734-0.525,1.103-1.308,1.103-2.347c0-0.58-0.162-1.096-0.485-1.548
			c-0.324-0.452-0.8-0.887-1.427-1.305s-1.905-1.086-3.834-2.003c-1.808-0.851-3.163-1.666-4.067-2.448
			c-0.903-0.782-1.625-1.693-2.164-2.731c-0.54-1.039-0.81-2.253-0.81-3.643c0-2.616,0.887-4.674,2.66-6.171
			s4.226-2.246,7.354-2.246c1.538,0,3.005,0.183,4.401,0.547c1.396,0.364,2.855,0.877,4.38,1.537l-2.023,4.877
			c-1.578-0.647-2.883-1.1-3.915-1.356c-1.031-0.256-2.047-0.384-3.045-0.384c-1.187,0-2.098,0.276-2.731,0.829
			c-0.634,0.554-0.95,1.274-0.95,2.165c0,0.554,0.128,1.035,0.384,1.446c0.256,0.412,0.664,0.81,1.225,1.194
			c0.56,0.385,1.885,1.075,3.976,2.074c2.765,1.321,4.66,2.646,5.686,3.976C850.175,221.53,850.688,223.159,850.688,225.088z"/>
		<path opacity="0.8" fill="#FFFFFF" d="M882.198,203.722v19.141c0,2.186-0.488,4.101-1.467,5.746
			c-0.978,1.646-2.391,2.907-4.238,3.784c-1.849,0.877-4.033,1.314-6.556,1.314c-3.804,0-6.758-0.974-8.862-2.923
			s-3.156-4.617-3.156-8.003v-19.06h6.252v18.109c0,2.279,0.458,3.952,1.376,5.018c0.917,1.065,2.435,1.599,4.553,1.599
			c2.05,0,3.537-0.537,4.461-1.609s1.386-2.755,1.386-5.048v-18.068H882.198z"/>
		<path opacity="0.8" fill="#FFFFFF" d="M891.514,233.303v-29.581h6.272v29.581H891.514z"/>
		<path opacity="0.8" fill="#FFFFFF" d="M918.716,233.303h-6.272v-24.36h-8.033v-5.221h22.338v5.221h-8.032V233.303z"/>
		<path opacity="0.8" fill="#FFFFFF" d="M950.408,233.303h-17.036v-29.581h17.036v5.14h-10.764v6.495h10.016v5.139h-10.016v7.628
			h10.764V233.303z"/>
	</g>
</g>
<g>
</g>
<g>
</g>
<g>
</g>
<g>
</g>
<g>
</g>
<g>
</g>
<g>
</g>
<g>
</g>
<g>
</g>
<g>
</g>
<g>
</g>
<g>
</g>
<g>
</g>
<g>
</g>
<g>
</g>
</svg>
